<?xml version="1.0" standalone="no"?>
<!DOCTYPE svg PUBLIC "-//W3C//DTD SVG 20010904//EN"
 "http://www.w3.org/TR/2001/REC-SVG-20010904/DTD/svg10.dtd">
<svg version="1.0" xmlns="http://www.w3.org/2000/svg"
 width="225.000000pt" height="225.000000pt" viewBox="0 0 225.000000 225.000000"
 preserveAspectRatio="xMidYMid meet">
<metadata>
Created by potrace 1.10, written by Peter Selinger 2001-2011
</metadata>
<g transform="translate(0.000000,225.000000) scale(0.100000,-0.100000)"
fill="#000000" stroke="none">
<path d="M1130 1538 c-67 -18 -120 -41 -114 -49 3 -5 0 -9 -6 -9 -6 0 -20 -20
-31 -44 l-19 -45 31 -45 c17 -26 35 -44 40 -41 5 4 9 3 9 -2 0 -10 45 -29 89
-37 56 -10 144 12 186 46 46 38 57 66 44 112 -5 20 -10 39 -11 43 0 5 -15 16
-32 27 -17 10 -34 24 -38 30 -4 6 -8 8 -8 5 0 -6 -33 -1 -85 13 -11 3 -36 2
-55 -4z m105 -32 c100 -31 136 -107 77 -166 -81 -81 -277 -57 -313 38 -12 30
12 86 43 103 31 17 98 38 124 38 11 1 42 -5 69 -13z"/>
<path d="M1118 1453 c-8 -14 4 -103 13 -103 5 0 9 17 9 38 1 32 2 35 13 20 12
-15 14 -15 25 0 10 14 11 10 6 -20 -5 -31 -3 -38 10 -38 13 0 16 11 16 49 0
53 -10 70 -30 46 -10 -12 -15 -12 -35 1 -13 8 -25 11 -27 7z"/>
<path d="M1223 1447 c3 -8 11 -33 18 -56 7 -23 17 -41 24 -41 6 0 18 23 27 50
12 39 13 50 4 50 -7 0 -18 -15 -23 -32 l-10 -33 -9 34 c-6 19 -16 37 -24 39
-8 3 -11 -1 -7 -11z"/>
<path d="M1034 1435 c3 -9 6 -32 6 -51 0 -33 2 -35 28 -32 25 3 27 6 27 48 0
44 -1 45 -34 48 -28 3 -33 1 -27 -13z"/>
<path d="M1390 1293 c-13 -3 -30 -12 -38 -21 -7 -10 -10 -11 -6 -3 5 10 3 12
-5 7 -7 -5 -10 -11 -7 -14 3 -3 0 -12 -8 -21 -8 -9 -15 -20 -16 -26 -5 -47
-12 -53 -48 -49 -26 3 -40 0 -48 -11 -9 -12 -17 -13 -38 -5 -15 5 -25 13 -22
18 9 14 -40 6 -64 -11 -27 -19 -44 -22 -35 -7 3 6 3 10 -2 11 -4 0 -17 2 -29
4 -12 3 -30 -4 -42 -16 -12 -11 -22 -15 -22 -9 0 6 -5 8 -12 4 -7 -5 -9 -2 -6
7 4 11 -6 14 -46 14 -28 0 -54 5 -58 10 -5 6 -8 5 -8 -2 0 -7 -6 -13 -14 -13
-8 0 -24 -11 -37 -24 -29 -30 -49 -23 -49 18 -1 28 -28 95 -30 71 0 -5 -7 1
-15 15 -8 14 -14 22 -15 17 0 -4 -10 -1 -23 8 -13 8 -27 12 -30 8 -4 -3 -7 -1
-7 5 0 7 -29 9 -92 6 -137 -7 -147 -8 -140 -18 3 -5 -2 -6 -12 -3 -11 4 -15 3
-11 -4 4 -6 1 -9 -7 -7 -19 4 -70 -40 -87 -77 -17 -35 -20 -85 -7 -102 4 -7 6
-13 2 -13 -4 0 0 -13 9 -30 9 -16 21 -30 28 -30 7 0 23 -9 35 -20 22 -20 65
-20 78 1 15 24 24 3 24 -56 0 -36 -3 -64 -7 -64 -5 1 -15 1 -23 0 -24 -3 19
-31 47 -31 l23 0 0 163 c0 135 3 169 19 202 l18 41 -61 -7 c-111 -12 -141 -40
-137 -130 1 -27 28 -62 71 -91 l25 -17 -28 0 c-20 -1 -40 10 -63 33 -29 29
-34 41 -34 80 0 90 42 129 160 146 120 17 209 -2 244 -52 31 -44 13 -128 -27
-128 -7 0 2 -11 20 -25 40 -32 68 -101 55 -135 -14 -36 -51 -67 -101 -85 -56
-19 -171 -19 -218 0 -35 15 -70 6 -42 -10 8 -5 10 -4 5 3 -12 20 5 13 22 -8
36 -44 230 -38 286 9 11 9 16 10 12 4 -10 -18 -1 -16 18 3 15 14 16 12 13 -25
-2 -24 1 -38 7 -34 6 4 7 -1 2 -13 -4 -10 -4 -15 0 -11 4 4 14 1 22 -5 11 -10
17 -9 26 5 9 11 16 13 23 6 6 -6 67 -11 137 -13 100 -1 134 1 162 15 28 12 41
14 59 5 13 -6 21 -14 19 -18 -3 -5 7 -3 21 2 15 6 31 7 37 4 13 -8 208 -11
208 -2 0 3 -5 8 -12 10 -8 3 -9 12 0 36 6 18 9 39 6 47 -5 11 1 15 19 15 20 0
26 -7 37 -45 7 -25 9 -49 5 -53 -4 -4 -10 -1 -12 6 -6 15 -46 16 -41 0 6 -16
45 -20 70 -7 15 8 19 8 14 0 -4 -6 -1 -11 6 -12 7 0 21 -2 31 -4 9 -2 15 1 11
6 -3 5 2 9 10 9 8 0 18 -5 21 -10 4 -7 13 -7 26 0 12 7 19 7 19 1 0 -7 9 -7
27 0 16 6 29 6 31 1 5 -16 51 -1 57 19 8 26 24 24 35 -3 5 -13 9 -19 9 -15 1
5 8 1 17 -7 18 -19 94 -22 112 -4 7 7 12 8 12 3 0 -4 9 0 20 10 23 21 27 63 7
71 -8 3 -25 1 -39 -5 -26 -10 -27 -7 -29 40 -1 19 61 151 76 161 5 4 6 8 2 8
-5 0 -1 10 7 22 25 35 20 77 -11 106 -31 28 -66 32 -92 8 -22 -20 -30 -20 -52
0 -26 24 -51 23 -78 -2 -24 -23 -25 -23 -49 -4 -29 24 -109 21 -148 -4 -26
-18 -69 -13 -58 6 4 7 2 8 -4 4 -7 -4 -12 -2 -12 4 0 6 -4 8 -10 5 -5 -3 -10
-1 -10 5 0 7 -6 8 -19 0 -45 -24 -54 -6 -16 34 13 14 21 26 17 26 -4 0 -1 4 6
8 18 12 6 37 -24 51 -14 6 -26 10 -27 10 -1 -1 -13 -4 -27 -6z m55 -50 c-11
-7 -27 -13 -37 -13 -16 0 -18 -9 -18 -80 l0 -81 31 36 c62 70 99 35 84 -80 -8
-68 -41 -105 -93 -105 -65 0 -72 16 -72 164 0 153 8 173 68 178 48 4 60 -2 37
-19z m-1010 -136 c-3 -50 -7 -93 -9 -95 -3 -2 -16 4 -29 14 -29 22 -71 84 -58
84 6 0 8 10 6 22 -6 28 31 62 68 64 l26 2 -4 -91z m1539 21 c20 -28 20 -57 2
-83 -34 -49 -96 -185 -96 -210 0 -55 57 -86 82 -45 14 21 28 27 28 10 0 -26
-41 -50 -84 -50 -81 0 -98 51 -46 133 l30 48 -40 79 c-41 81 -53 90 -92 69
-18 -10 -18 -8 3 20 25 34 64 50 80 34 5 -5 27 -43 48 -83 l39 -74 12 41 c13
41 2 83 -20 83 -14 0 -12 24 2 38 18 18 35 15 52 -10z m-1053 -1 c56 -43 49
-148 -13 -191 -23 -16 -73 -21 -103 -10 -24 10 -45 58 -45 105 0 33 6 47 34
75 27 27 42 34 73 34 21 0 45 -6 54 -13z m123 -11 c3 -14 3 -33 0 -43 -4 -10
10 1 30 25 48 54 82 57 92 8 l6 -34 30 34 c32 36 72 45 82 18 3 -9 6 -54 6
-101 0 -75 2 -84 15 -73 8 7 15 8 15 3 0 -18 -24 -33 -52 -33 l-28 0 0 79 c0
46 -5 83 -11 86 -6 4 -21 -3 -35 -16 -19 -18 -24 -32 -24 -74 0 -52 -12 -75
-39 -75 -14 0 -15 13 -13 85 4 93 -3 103 -45 63 -18 -17 -23 -32 -23 -73 0
-52 -12 -75 -39 -75 -14 0 -15 14 -13 91 3 80 2 91 -12 86 -24 -9 -19 10 6 27
31 22 45 20 52 -8z m668 -72 l-3 -97 28 7 28 6 -24 -20 c-34 -29 -60 -25 -75
10 l-12 30 -29 -30 c-53 -55 -95 -33 -95 50 0 83 56 140 140 140 l45 0 -3 -96z
m102 -29 c9 -14 14 -25 10 -25 -4 0 -1 -6 5 -14 23 -28 22 -62 -3 -89 -13 -14
-21 -28 -18 -31 3 -3 3 -6 -1 -6 -3 0 -13 7 -22 16 -11 11 -19 13 -28 6 -12
-9 -57 1 -57 13 0 4 4 4 9 1 5 -3 21 10 36 30 20 26 24 39 16 47 -12 12 -15
79 -5 90 10 10 39 -9 58 -38z m-610 -69 c-5 -13 7 -28 50 -64 12 -10 16 -10
16 -1 0 7 3 10 6 6 14 -13 -7 -27 -27 -17 -11 7 -19 7 -19 1 0 -5 -13 -7 -28
-5 -28 5 -79 -26 -65 -39 3 -4 -2 -9 -11 -13 -25 -10 -19 -22 9 -16 14 2 25 0
25 -7 0 -14 -51 -10 -57 5 -2 7 -6 18 -7 26 -8 36 -20 48 -47 48 -38 0 -37 21
1 43 32 19 50 16 50 -9 0 -16 45 -20 55 -4 9 15 27 12 19 -2 -4 -7 -3 -9 1 -5
5 4 10 15 11 23 3 22 12 44 18 44 3 0 3 -6 0 -14z m-239 -17 c-4 -5 6 -19 21
-32 l27 -23 -54 -2 c-70 -2 -94 5 -79 23 6 7 19 11 28 8 12 -3 23 5 31 21 8
14 18 23 23 20 4 -3 6 -10 3 -15z m392 -42 c-2 -6 -16 -12 -31 -14 -28 -4 -29
2 -3 35 7 9 13 10 24 1 7 -7 12 -17 10 -22z m177 22 c-2 -4 0 -10 5 -14 15 -8
1 -37 -15 -31 -9 3 -11 -1 -7 -12 5 -14 2 -13 -14 3 -11 11 -19 23 -16 28 2 4
-1 7 -6 7 -6 0 -11 -6 -11 -12 0 -9 -3 -9 -9 1 -13 20 8 38 46 38 17 0 30 -4
27 -8z m111 -7 c-3 -10 0 -12 10 -8 9 3 15 0 15 -7 0 -17 -86 -22 -96 -6 -4 8
-3 9 4 5 12 -7 56 17 47 26 -3 2 2 5 10 5 10 0 14 -6 10 -15z m-840 -62 c14
23 25 6 25 -40 0 -54 -19 -71 -21 -17 0 17 -3 26 -6 19 -4 -10 -8 -10 -20 -1
-12 11 -14 8 -11 -16 2 -15 -2 -30 -8 -32 -8 -2 -13 13 -16 41 -4 63 -1 70 27
52 15 -10 26 -12 30 -6z m139 -1 c-3 -5 -13 -9 -22 -10 -14 0 -13 -3 6 -16 12
-8 22 -21 22 -29 0 -18 -34 -35 -54 -28 -21 8 -10 24 17 24 l21 0 -22 16 c-24
16 -30 50 -9 57 18 6 48 -4 41 -14z m254 -11 l9 -33 8 27 c4 15 14 29 22 32
12 5 14 1 8 -21 -9 -40 -28 -76 -39 -75 -5 0 -17 21 -27 46 -16 42 -15 47 8
55 1 1 6 -14 11 -31z m532 2 c0 -28 18 -34 22 -8 2 13 11 24 20 26 15 3 15 -1
-2 -45 -10 -26 -22 -49 -26 -50 -5 -2 -17 19 -27 46 -21 59 -21 62 -2 55 8 -4
15 -14 15 -24z m-860 -30 c0 -27 -4 -50 -10 -50 -5 0 -10 15 -10 34 0 19 -3
41 -6 50 -4 11 -1 16 10 16 13 0 16 -11 16 -50z m154 3 c18 -52 14 -65 -11
-40 -16 15 -18 15 -35 0 -25 -22 -28 -16 -15 40 15 63 39 64 61 0z m46 12 c0
-24 5 -35 15 -35 9 0 12 -6 9 -15 -4 -8 -15 -15 -25 -15 -15 0 -19 7 -19 34 0
19 -3 41 -6 50 -4 11 -1 16 10 16 12 0 16 -10 16 -35z m256 -15 c15 -51 13
-56 -14 -39 -17 10 -23 10 -36 -1 -23 -18 -25 -11 -13 43 10 38 15 47 31 45
13 -2 23 -17 32 -48z m91 28 c10 -23 1 -67 -14 -69 -4 0 -18 -2 -30 -3 -20 -2
-23 2 -23 30 0 18 -3 39 -6 48 -5 13 1 16 28 16 26 0 37 -6 45 -22z m191 -5
c2 -14 -4 -27 -17 -35 -12 -7 -21 -18 -21 -25 0 -7 -4 -13 -10 -13 -5 0 -10
15 -10 34 0 19 -3 42 -6 51 -6 14 -1 16 27 13 26 -2 35 -8 37 -25z m76 -20
c18 -51 15 -63 -10 -43 -13 11 -19 11 -36 1 -26 -16 -34 -7 -20 24 7 14 12 35
12 45 0 13 7 20 19 20 14 0 24 -13 35 -47z"/>
<path d="M1412 1067 c-27 -29 -32 -114 -6 -124 26 -10 42 19 46 81 3 67 -7 78
-40 43z"/>
<path d="M826 1107 c-14 -10 -18 -26 -18 -61 2 -62 9 -84 33 -97 16 -8 26 -7
45 6 20 13 24 24 24 61 0 83 -39 124 -84 91z m54 -91 c0 -21 -3 -27 -9 -17 -7
11 -9 11 -14 0 -3 -8 -6 6 -6 30 -1 38 1 42 14 31 8 -7 15 -27 15 -44z"/>
<path d="M1622 1113 c-17 -7 -42 -57 -42 -86 0 -36 22 -50 54 -36 24 11 26 17
26 71 0 58 -5 64 -38 51z"/>
<path d="M1370 805 c0 -17 5 -25 13 -22 6 2 12 12 12 22 0 10 -6 20 -12 23 -8
2 -13 -6 -13 -23z"/>
<path d="M530 1056 c0 -158 -2 -176 -20 -199 -11 -14 -20 -27 -20 -29 0 -9
114 11 137 23 64 34 47 173 -25 200 l-27 11 32 13 c36 15 48 42 39 91 -8 40
-39 64 -83 64 l-33 0 0 -174z m76 107 c-3 -7 0 -13 6 -13 7 0 6 -5 -2 -15 -7
-8 -9 -15 -5 -15 5 0 0 -9 -10 -20 -26 -28 -30 -25 -31 20 -1 21 3 37 7 34 5
-3 6 2 3 10 -4 11 0 14 15 13 13 -1 20 -6 17 -14z m-12 -144 c3 1 7 -2 7 -6 1
-5 8 -17 15 -28 18 -25 17 -75 -1 -99 -8 -11 -15 -17 -15 -13 0 4 -8 3 -18 -2
-16 -8 -17 -3 -17 54 1 35 4 67 8 71 11 11 8 26 -3 19 -6 -3 -7 1 -3 10 4 12
8 13 13 5 4 -6 10 -11 14 -11z"/>
</g>
</svg>
